<?xml version="1.0" encoding="utf-8"?>
<!-- Generator: Adobe Illustrator 13.0.1, SVG Export Plug-In . SVG Version: 6.00 Build 14948)  -->
<!DOCTYPE svg PUBLIC "-//W3C//DTD SVG 1.1//EN" "http://www.w3.org/Graphics/SVG/1.1/DTD/svg11.dtd">
<svg version="1.1" id="Superdoge" xmlns="http://www.w3.org/2000/svg" xmlns:xlink="http://www.w3.org/1999/xlink" x="0px" y="0px"
	 width="48px" height="48px" viewBox="264 192 268 216" enable-background="new 264 192 268 216" xml:space="preserve">

<g>
	<path id="ground_shadow" opacity="0.33" enable-background="new    " d="M331.068,355.929
		c-30.471,14.574-42.776,33.821-20.977,47.464c26.921,16.851,102.896,18.859,164.583-3.976c65.11-24.1,60.941-58.155-5.487-65.292
		C416.525,328.468,360.119,342.033,331.068,355.929z"/>
	<path id="circle_shadow" opacity="0.22" enable-background="new    " d="M311.63,263.099
		c-33.897,36.935-47.588,85.716-23.336,120.3c29.95,42.706,114.469,47.796,183.1-10.073c72.437-61.076,67.799-147.384-6.104-165.48
		C406.702,193.5,343.949,227.884,311.63,263.099z"/>
	
		<linearGradient id="circle_1_" gradientUnits="userSpaceOnUse" x1="-72.3477" y1="-85.3467" x2="-72.3478" y2="-296.9429" gradientTransform="matrix(1 0 0 -1 470 117)">
		<stop  offset="0" style="stop-color:#FCFCFC"/>
		<stop  offset="0.3919" style="stop-color:#F7F7F7"/>
		<stop  offset="0.8702" style="stop-color:#E8E8E8"/>
		<stop  offset="1" style="stop-color:#E3E3E3"/>
	</linearGradient>
	<path id="circle" fill="url(#circle_1_)" stroke="#EDEDEE" d="M309.63,260.94c-33.897,36.935-47.588,85.716-23.336,120.3
		c29.95,42.706,114.469,47.796,183.1-10.073c72.437-61.077,67.799-147.385-6.104-165.48
		C404.702,191.341,341.949,225.726,309.63,260.94z"/>
	<path id="disc_hilite" opacity="0.44" fill="#FFFFFF" enable-background="new    " d="M380.904,319.944l124.724,9.029
		c30.951-53.007,15.589-109.106-42.342-123.287c-42.116-10.313-86.387,4.561-119.958,26.82L380.904,319.944z"/>
	<path id="disc_shadow" opacity="0.22" fill-opacity="0.33" enable-background="new    " d="M470.796,207.846
		c-2.043,0.358-3.42,0.77-3.509,1.025c-0.981,2.791,8.234,5.199,9.728,7.706c-11.493,2.72-18.094,28.979-29.099,35.829
		c-11.004,6.853-96.904,32.431-108.404,34.424c-11.5,1.992-29.599-4.321-35.166-15.405c-0.443-0.882-0.875-1.841-1.294-2.842
		c-2.5,3.09-4.856,6.245-7.07,9.451c6.467,11.1,30.852,17.262,35.467,26.746c4.893,10.052-34.301,75.772-27.787,80.762
		c4.177,3.198,15.364,4.731,16.507-0.787c1.637-7.899-19.793-7.045,35.146-50.342c13.3-10.484,68.908-2.366,84.372-11.137
		c4.023,14.914-11.593,49.017-37.898,47.778c-16.418-2.983-9.69,16.608,2.83,11.548c10.804-4.363,29.604-2.657,76.42-75.382
		c7.285-11.313,10.928-37.257,16.917-47.829c3.195-5.644,11.072-8.148,18.795-9.61C509.637,230.754,494.214,215.567,470.796,207.846
		z"/>
	<path id="doge_shadow" opacity="0.22" fill-opacity="0.5" enable-background="new    " d="M520.604,202.835
		c-5.318-4.882-47.146-11.09-53.384-15.749c-6.234-4.658-21.604-1.533-21.799-0.54c-0.613,3.136,8.919,5.846,10.74,8.663
		c-11.136,3.059-14.28,32.582-24.383,40.285c-10.104,7.704-92.639,36.463-103.875,38.703c-11.238,2.241-30.167-4.857-37.192-17.319
		c-7.025-12.462-13.64-36.854-13.64-36.854s-1.16,28,4.901,41.975c6.061,13.973,34.013,21.078,40.229,32.382
		c6.215,11.304-24.333,85.193-17.163,90.803c4.598,3.599,15.986,5.319,16.403-0.884c0.597-8.882-20.721-7.925,28.521-56.604
		c11.921-11.785,68.597-2.66,82.906-12.522c5.988,16.77-5.146,55.111-31.615,53.715c-16.811-3.352-7.505,18.673,4.353,12.985
		c10.229-4.905,29.254-2.989,66.505-84.756c5.795-12.723,6.023-41.888,10.625-53.778c4.812-12.445,29.229-11.326,34.67-14.388
		C529.512,222.134,524.396,206.317,520.604,202.835z"/>
	
		<linearGradient id="red_doge_1_" gradientUnits="userSpaceOnUse" x1="-70.7695" y1="-269.5298" x2="-70.7696" y2="-65.7046" gradientTransform="matrix(1 0 0 -1 470 117)">
		<stop  offset="0" style="stop-color:#ED2024"/>
		<stop  offset="1" style="stop-color:#F58220"/>
	</linearGradient>
	<path id="red_doge" fill="url(#red_doge_1_)" d="M518.851,200.942c-5.318-4.883-47.146-11.091-53.387-15.749
		c-6.232-4.659-21.602-1.533-21.797-0.54c-0.614,3.136,8.919,5.845,10.74,8.663c-11.136,3.059-14.279,32.582-24.383,40.284
		c-10.104,7.703-92.639,36.464-103.875,38.703c-11.238,2.239-30.167-4.858-37.192-17.321c-7.026-12.463-13.64-36.854-13.64-36.854
		s-1.161,28,4.9,41.974s34.014,21.079,40.229,32.382c6.216,11.304-24.333,85.194-17.163,90.805
		c4.598,3.599,15.986,5.318,16.403-0.884c0.597-8.882-20.721-7.925,28.521-56.606c11.921-11.784,68.598-2.659,82.906-12.521
		c5.986,16.771-7.891,55.854-31.616,53.715c-16.811-3.35-7.506,18.675,4.35,12.984c10.229-4.907,29.253-2.989,66.505-84.756
		c5.798-12.721,6.024-41.888,10.625-53.779c4.812-12.442,29.229-11.325,34.671-14.387
		C527.758,220.241,522.642,204.422,518.851,200.942z"/>
	<path id="cape" opacity="0.22" fill="#FFFFFF" enable-background="new    " d="M478.64,250.399
		c-11.932-1.905-23.367-6.003-32.508-13.619c-3.398-2.836-7.627-5.222-12.468-7.223c-1.117,1.646-2.315,3.035-3.64,4.043
		c-7.147,5.449-50.531,21.431-79.292,31.114c11.295,6.743,23.293,13.706,35.225,20.295c21.363,11.797,56.324,4.844,88.55-6.501
		C476.026,269.136,477.08,258.609,478.64,250.399z"/>
</g>
</svg>
